# xmcd
#
# Track frame offsets: 
#        150
#        24393
#        63224
#        86750
#        110276
#        136527
#        160216
#        187077
#        217712
#        248597
#        278575
#
# Disc length: 3883 seconds
#
# Revision: 0
# Processed by: cddbd v1.5.1PL2 Copyright (c) Steve Scherf et al.
# Submitted via: ExactAudioCopy v0.95a5
#
DISCID=840f290b
DTITLE=Don Oja-Dunaway - Kennesaw
DYEAR=1900
DGENRE=Country
TTITLE0=Uncle Jubal
TTITLE1=Paducah
TTITLE2=Sumter County
TTITLE3=Destria
TTITLE4=Keaton Miller's Farewell
TTITLE5=Thomas Martin
TTITLE6=Micah
TTITLE7=Dance with me, Julie Anne
TTITLE8=Kennesaw Line
TTITLE9=Enoch Ludford
TTITLE10=My Enemy, My Brother
EXTD=
EXTT0=
EXTT1=
EXTT2=
EXTT3=
EXTT4=
EXTT5=
EXTT6=
EXTT7=
EXTT8=
EXTT9=
EXTT10=
PLAYORDER=
